<svg height="512" viewBox="0 0 64 64" width="512" xmlns="http://www.w3.org/2000/svg"><g id="Outline"><g><path d="m42 29h-16a1 1 0 0 1 0-2h16a1 1 0 0 1 0 2z"/><path d="m38 33h-16a1 1 0 0 1 0-2h16a1 1 0 0 1 0 2z"/><path d="m26 21h-4a1 1 0 0 1 0-2h4a1 1 0 0 1 0 2z"/><path d="m26 17h-4a1 1 0 0 1 0-2h4a1 1 0 0 1 0 2z"/><path d="m34 41h-4a9.011 9.011 0 0 1 -9-9v-18a9.011 9.011 0 0 1 9-9h4a9.011 9.011 0 0 1 9 9v2a1 1 0 0 1 -1 1h-4a1 1 0 0 1 0-2h3v-1a7.008 7.008 0 0 0 -7-7h-4a7.008 7.008 0 0 0 -7 7v18a7.008 7.008 0 0 0 7 7h4a7.008 7.008 0 0 0 7-7v-11h-3a1 1 0 0 1 0-2h4a1 1 0 0 1 1 1v12a9.011 9.011 0 0 1 -9 9z"/><path d="m41.738 13h-3.738a1 1 0 0 1 0-2h3.738a1 1 0 0 1 0 2z"/><path d="m26 13h-3.738a1 1 0 0 1 0-2h3.738a1 1 0 0 1 0 2z"/><path d="m34 9a1 1 0 0 1 -1-1v-1.738a1 1 0 0 1 2 0v1.738a1 1 0 0 1 -1 1z"/><path d="m30 9a1 1 0 0 1 -1-1v-1.738a1 1 0 0 1 2 0v1.738a1 1 0 0 1 -1 1z"/><path d="m17.515 26.627a.993.993 0 0 1 -.707-.293 13.013 13.013 0 0 1 0-18.384 1 1 0 1 1 1.414 1.414 11.012 11.012 0 0 0 0 15.556 1 1 0 0 1 -.707 1.707z"/><path d="m46.485 26.627a1 1 0 0 1 -.707-1.707 11.012 11.012 0 0 0 0-15.556 1 1 0 1 1 1.414-1.414 13.013 13.013 0 0 1 0 18.384.993.993 0 0 1 -.707.293z"/><path d="m14.687 29.456a1 1 0 0 1 -.708-.293 17 17 0 0 1 0-24.041 1 1 0 0 1 1.415 1.414 15 15 0 0 0 0 21.213 1 1 0 0 1 -.707 1.707z"/><path d="m49.313 29.456a1 1 0 0 1 -.707-1.707 15 15 0 0 0 0-21.213 1 1 0 0 1 1.415-1.414 17 17 0 0 1 0 24.041 1 1 0 0 1 -.708.293z"/><path d="m11.858 32.284a.993.993 0 0 1 -.707-.293 21.023 21.023 0 0 1 0-29.7 1 1 0 1 1 1.414 1.414 19 19 0 0 0 0 26.87 1 1 0 0 1 -.707 1.707z"/><path d="m52.142 32.284a1 1 0 0 1 -.707-1.707 19 19 0 0 0 0-26.87 1 1 0 1 1 1.414-1.414 21.023 21.023 0 0 1 0 29.7.993.993 0 0 1 -.707.291z"/><path d="m26 25h-4a1 1 0 0 1 0-2h4a1 1 0 0 1 0 2z"/><path d="m42 25h-4a1 1 0 0 1 0-2h4a1 1 0 0 1 0 2z"/><path d="m34 17h-4a1 1 0 0 1 0-2h4a1 1 0 0 1 0 2z"/><path d="m34 21h-4a1 1 0 0 1 0-2h4a1 1 0 0 1 0 2z"/><path d="m34 25h-4a1 1 0 0 1 0-2h4a1 1 0 0 1 0 2z"/><path d="m34 13h-4a1 1 0 0 1 0-2h4a1 1 0 0 1 0 2z"/><path d="m34 46h-4a4 4 0 0 1 -4-4v-2.587h2v2.587a2 2 0 0 0 2 2h4a2 2 0 0 0 2-2v-2.587h2v2.587a4 4 0 0 1 -4 4z"/><path d="m34 44.816h2v10.184h-2z"/><path d="m29 56a1 1 0 0 1 -1-1v-6.184a1 1 0 0 1 2 0v6.184a1 1 0 0 1 -1 1z"/><path d="m44 62h-17a1 1 0 0 1 0-2h16v-1a3 3 0 0 0 -3-3h-16a3 3 0 0 0 -3 3v1h2a1 1 0 0 1 0 2h-3a1 1 0 0 1 -1-1v-2a5.006 5.006 0 0 1 5-5h16a5.006 5.006 0 0 1 5 5v2a1 1 0 0 1 -1 1z"/></g></g></svg>