<svg id="Capa_1" enable-background="new 0 0 512 512" height="512" viewBox="0 0 512 512" width="512" xmlns="http://www.w3.org/2000/svg" xmlns:xlink="http://www.w3.org/1999/xlink"><linearGradient id="SVGID_1_" gradientUnits="userSpaceOnUse" x1="256" x2="256" y1="512" y2="0"><stop offset="0" stop-color="#addcff"/><stop offset=".5028" stop-color="#eaf6ff"/><stop offset="1" stop-color="#eaf6ff"/></linearGradient><linearGradient id="SVGID_2_" gradientUnits="userSpaceOnUse" x1="256" x2="256" y1="103.809" y2="405.736"><stop offset="0" stop-color="#5558ff"/><stop offset="1" stop-color="#00c0ff"/></linearGradient><g><circle cx="256" cy="256" fill="url(#SVGID_1_)" r="256"/><g fill="url(#SVGID_2_)"><path d="m345.941 265.594c-4.971 0-8.994 4.023-8.994 8.994 0 44.637-36.31 80.947-80.947 80.947s-80.947-36.31-80.947-80.947c0-4.971-4.023-8.994-8.994-8.994s-8.994 4.023-8.994 8.994c0 51.518 39.593 93.915 89.941 98.48v18.444h-44.971c-4.971 0-8.994 4.023-8.994 8.994s4.023 8.994 8.994 8.994h107.93c4.971 0 8.994-4.023 8.994-8.994s-4.023-8.994-8.994-8.994h-44.971v-18.444c50.348-4.565 89.941-46.962 89.941-98.48.001-4.971-4.022-8.994-8.994-8.994z"/><path d="m256 102.5c-34.712 0-62.959 28.247-62.959 62.959v109.129c0 34.712 28.247 62.959 62.959 62.959s62.959-28.247 62.959-62.959v-109.129c0-34.712-28.247-62.959-62.959-62.959z"/></g></g></svg>