<svg height="512" viewBox="0 0 64 64" width="512" xmlns="http://www.w3.org/2000/svg"><g id="Fill_Outline" data-name="Fill Outline"><g id="Color"><g><path d="m29 43h6v14h-6z" fill="#fcbc04"/><path d="m31 49v-2h2a2.978 2.978 0 0 0 2-.779v-3.221h-6v14h6v-4a4 4 0 0 1 -4-4z" fill="#e59730"/><path d="m27 37h10a0 0 0 0 1 0 0v5a3 3 0 0 1 -3 3h-4a3 3 0 0 1 -3-3v-5a0 0 0 0 1 0 0z" fill="#f9e109"/><path d="m36 44a6.974 6.974 0 0 1 -4.9-2 10.907 10.907 0 0 0 5.9-1.8v-3.2h-10v5a3 3 0 0 0 3 3h4a2.983 2.983 0 0 0 2.242-1.024c-.082.006-.159.024-.242.024z" fill="#fcbc04"/><rect fill="#aae1f9" height="34" rx="8" width="20" x="22" y="6"/><path d="m24 55h16a4 4 0 0 1 4 4v2a0 0 0 0 1 0 0h-24a0 0 0 0 1 0 0v-2a4 4 0 0 1 4-4z" fill="#aae1f9"/><path d="m27 58a3.988 3.988 0 0 1 -3.831-2.911 4 4 0 0 0 -3.169 3.911v2h24v-2a3.977 3.977 0 0 0 -.141-1z" fill="#57b7eb"/><path d="m39 34a12 12 0 0 1 -12-12v-15.413a8 8 0 0 0 -5 7.413v18a8 8 0 0 0 8 8h4a8 8 0 0 0 7.738-6z" fill="#57b7eb"/><path d="m22 28h20v4h-20z" fill="#f9e109"/><path d="m28.618 28h-6.618v4h10.372a12.056 12.056 0 0 1 -3.754-4z" fill="#fcbc04"/></g></g><g id="Outline_copy" data-name="Outline copy"><g fill="#39519d"><path d="m42 29h-16a1 1 0 0 1 0-2h16a1 1 0 0 1 0 2z"/><path d="m38 33h-16a1 1 0 0 1 0-2h16a1 1 0 0 1 0 2z"/><path d="m26 21h-4a1 1 0 0 1 0-2h4a1 1 0 0 1 0 2z"/><path d="m26 17h-4a1 1 0 0 1 0-2h4a1 1 0 0 1 0 2z"/><path d="m34 41h-4a9.011 9.011 0 0 1 -9-9v-18a9.011 9.011 0 0 1 9-9h4a9.011 9.011 0 0 1 9 9v2a1 1 0 0 1 -1 1h-4a1 1 0 0 1 0-2h3v-1a7.008 7.008 0 0 0 -7-7h-4a7.008 7.008 0 0 0 -7 7v18a7.008 7.008 0 0 0 7 7h4a7.008 7.008 0 0 0 7-7v-11h-3a1 1 0 0 1 0-2h4a1 1 0 0 1 1 1v12a9.011 9.011 0 0 1 -9 9z"/><path d="m41.738 13h-3.738a1 1 0 0 1 0-2h3.738a1 1 0 0 1 0 2z"/><path d="m26 13h-3.738a1 1 0 0 1 0-2h3.738a1 1 0 0 1 0 2z"/><path d="m34 9a1 1 0 0 1 -1-1v-1.738a1 1 0 0 1 2 0v1.738a1 1 0 0 1 -1 1z"/><path d="m30 9a1 1 0 0 1 -1-1v-1.738a1 1 0 0 1 2 0v1.738a1 1 0 0 1 -1 1z"/><path d="m17.515 26.627a.993.993 0 0 1 -.707-.293 13.013 13.013 0 0 1 0-18.384 1 1 0 1 1 1.414 1.414 11.012 11.012 0 0 0 0 15.556 1 1 0 0 1 -.707 1.707z"/><path d="m46.485 26.627a1 1 0 0 1 -.707-1.707 11.012 11.012 0 0 0 0-15.556 1 1 0 1 1 1.414-1.414 13.013 13.013 0 0 1 0 18.384.993.993 0 0 1 -.707.293z"/><path d="m14.687 29.456a1 1 0 0 1 -.708-.293 17 17 0 0 1 0-24.041 1 1 0 0 1 1.415 1.414 15 15 0 0 0 0 21.213 1 1 0 0 1 -.707 1.707z"/><path d="m49.313 29.456a1 1 0 0 1 -.707-1.707 15 15 0 0 0 0-21.213 1 1 0 0 1 1.415-1.414 17 17 0 0 1 0 24.041 1 1 0 0 1 -.708.293z"/><path d="m11.858 32.284a.993.993 0 0 1 -.707-.293 21.023 21.023 0 0 1 0-29.7 1 1 0 1 1 1.414 1.414 19 19 0 0 0 0 26.87 1 1 0 0 1 -.707 1.707z"/><path d="m52.142 32.284a1 1 0 0 1 -.707-1.707 19 19 0 0 0 0-26.87 1 1 0 1 1 1.414-1.414 21.023 21.023 0 0 1 0 29.7.993.993 0 0 1 -.707.291z"/><path d="m26 25h-4a1 1 0 0 1 0-2h4a1 1 0 0 1 0 2z"/><path d="m42 25h-4a1 1 0 0 1 0-2h4a1 1 0 0 1 0 2z"/><path d="m34 17h-4a1 1 0 0 1 0-2h4a1 1 0 0 1 0 2z"/><path d="m34 21h-4a1 1 0 0 1 0-2h4a1 1 0 0 1 0 2z"/><path d="m34 25h-4a1 1 0 0 1 0-2h4a1 1 0 0 1 0 2z"/><path d="m34 13h-4a1 1 0 0 1 0-2h4a1 1 0 0 1 0 2z"/><path d="m34 46h-4a4 4 0 0 1 -4-4v-2.587h2v2.587a2 2 0 0 0 2 2h4a2 2 0 0 0 2-2v-2.587h2v2.587a4 4 0 0 1 -4 4z"/><path d="m34 44.816h2v10.184h-2z"/><path d="m29 56a1 1 0 0 1 -1-1v-6.184a1 1 0 0 1 2 0v6.184a1 1 0 0 1 -1 1z"/><path d="m44 62h-17a1 1 0 0 1 0-2h16v-1a3 3 0 0 0 -3-3h-16a3 3 0 0 0 -3 3v1h2a1 1 0 0 1 0 2h-3a1 1 0 0 1 -1-1v-2a5.006 5.006 0 0 1 5-5h16a5.006 5.006 0 0 1 5 5v2a1 1 0 0 1 -1 1z"/></g></g></g></svg>